<svg width="96" height="96" viewBox="0 0 96 96" fill="none" xmlns="http://www.w3.org/2000/svg">
  <defs>
    <linearGradient id="crabShell" x1="24" y1="22" x2="72" y2="74" gradientUnits="userSpaceOnUse">
      <stop stop-color="#60A5FA"/>
      <stop offset="1" stop-color="#2563EB"/>
    </linearGradient>
  </defs>
  <rect x="6" y="6" width="84" height="84" rx="22" fill="#0B1220"/>
  <circle cx="48" cy="52" r="20" fill="url(#crabShell)"/>
  <circle cx="40" cy="48" r="3" fill="#DBEAFE"/>
  <circle cx="56" cy="48" r="3" fill="#DBEAFE"/>
  <path d="M40 59C42 61 45 62 48 62C51 62 54 61 56 59" stroke="#DBEAFE" stroke-width="3" stroke-linecap="round"/>
  <path d="M29 51L18 45M67 51L78 45" stroke="#3B82F6" stroke-width="4" stroke-linecap="round"/>
  <path d="M31 60L20 66M65 60L76 66" stroke="#3B82F6" stroke-width="4" stroke-linecap="round"/>
  <path d="M36 34L28 26M60 34L68 26" stroke="#60A5FA" stroke-width="4" stroke-linecap="round"/>
  <path d="M20 28L30 22L27 34" fill="#2563EB"/>
  <path d="M76 28L66 22L69 34" fill="#2563EB"/>
</svg>
